<svg id="visual" viewBox="0 0 900 450" width="900" height="450" xmlns="http://www.w3.org/2000/svg" xmlns:xlink="http://www.w3.org/1999/xlink" version="1.1"><path d="M0 190L75 163C150 136 300 82 450 64.8C600 47.7 750 67.3 825 77.2L900 87L900 0L825 0C750 0 600 0 450 0C300 0 150 0 75 0L0 0Z" fill="#116466"></path><path d="M0 244L75 213.3C150 182.7 300 121.3 450 101.8C600 82.3 750 104.7 825 115.8L900 127L900 85L825 75.2C750 65.3 600 45.7 450 62.8C300 80 150 134 75 161L0 188Z" fill="#225855"></path><path d="M0 249L75 230.2C150 211.3 300 173.7 450 157.8C600 142 750 148 825 151L900 154L900 125L825 113.8C750 102.7 600 80.3 450 99.8C300 119.3 150 180.7 75 211.3L0 242Z" fill="#294c47"></path><path d="M0 447L75 422.2C150 397.3 300 347.7 450 332.7C600 317.7 750 337.3 825 347.2L900 357L900 152L825 149C750 146 600 140 450 155.8C300 171.7 150 209.3 75 228.2L0 247Z" fill="#2c403b"></path><path d="M0 451L75 451C150 451 300 451 450 451C600 451 750 451 825 451L900 451L900 355L825 345.2C750 335.3 600 315.7 450 330.7C300 345.7 150 395.3 75 420.2L0 445Z" fill="#2c3531"></path></svg>